<svg width="1400" height="700" viewBox="0 0 1400 700" fill="none" xmlns="http://www.w3.org/2000/svg">
<ellipse cx="654.07" cy="267.448" rx="228.883" ry="226.448" fill="url(#paint0_linear_294_1900)" fill-opacity="0.6"/>
<path fill-rule="evenodd" clip-rule="evenodd" d="M891.808 380.422C894.49 377.049 897.288 373.772 900.197 370.598L1110.6 326.972C1114.53 328.735 1118.39 330.632 1122.17 332.658L891.808 380.422ZM884.699 389.983C882.58 393.032 880.552 396.149 878.618 399.329L1141.73 344.774C1138.71 342.629 1135.62 340.573 1132.47 338.61L884.699 389.983ZM868.916 417.514C870.329 414.462 871.824 411.456 873.397 408.498L1150.15 351.116C1152.77 353.211 1155.33 355.377 1157.83 357.61L868.916 417.514ZM865.084 426.394C863.93 429.279 862.846 432.199 861.836 435.154L1171.34 370.981C1169.24 368.678 1167.08 366.429 1164.87 364.236L865.084 426.394ZM1081.6 316.813C1086.94 318.191 1092.19 319.803 1097.33 321.638L910.273 360.423C914.276 356.682 918.447 353.118 922.773 349.744L1081.6 316.813ZM1061.73 312.846C1053.19 311.63 1044.47 311 1035.59 311C1034.19 311 1032.8 311.016 1031.41 311.047L966.194 324.569C956.832 328.394 947.856 332.97 939.342 338.223L1061.73 312.846ZM865.483 563.774L1219.14 490.447C1219.08 487.761 1218.96 485.09 1218.79 482.433L862.623 556.281C863.523 558.805 864.477 561.303 865.483 563.774ZM868.697 571.194L1219.14 498.532C1219.08 501.267 1218.97 503.987 1218.79 506.691L872.275 578.538C871.029 576.121 869.836 573.672 868.697 571.194ZM876.227 585.805C877.622 588.236 879.07 590.631 880.571 592.99L1216.96 523.243C1217.39 520.491 1217.76 517.718 1218.07 514.927L876.227 585.805ZM890.506 607.102C888.724 604.808 886.996 602.47 885.322 600.091L1215.44 531.644C1214.86 534.499 1214.2 537.329 1213.49 540.134L890.506 607.102ZM896.15 614.018C898.141 616.34 900.188 618.611 902.291 620.831L1208.15 557.413C1209.2 554.548 1210.17 551.651 1211.07 548.721L896.15 614.018ZM916.253 634.108C913.768 631.98 911.34 629.787 908.973 627.531L1204.68 566.218C1203.4 569.237 1202.04 572.215 1200.61 575.149L916.253 634.108ZM924.208 640.545C927.053 642.719 929.964 644.813 932.936 646.821L1190.32 593.456C1192.25 590.437 1194.1 587.358 1195.85 584.221L924.208 640.545ZM953.329 658.764C949.673 656.929 946.088 654.976 942.577 652.908L1183.86 602.881C1181.44 606.184 1178.92 609.404 1176.29 612.535L953.329 658.764ZM965.5 664.327C970.111 666.233 974.815 667.956 979.606 669.488L1156.41 632.83C1160.18 629.53 1163.82 626.078 1167.31 622.484L965.5 664.327ZM1019.17 677.457C1011.52 676.779 1004 675.63 996.644 674.042L1142.62 643.775C1136.5 648.174 1130.09 652.206 1123.44 655.838L1019.17 677.457ZM1218.09 474.491C1217.81 471.849 1217.46 469.225 1217.06 466.618L857.938 541.08C858.608 543.647 859.333 546.193 860.11 548.716L1218.09 474.491ZM1215.7 458.815L856.105 533.374C855.552 530.802 855.053 528.21 854.609 525.599L1214 451.083C1214.62 453.64 1215.19 456.218 1215.7 458.815ZM1211.96 443.42C1211.22 440.865 1210.42 438.334 1209.58 435.827L852.625 509.838C852.843 512.493 853.118 515.132 853.448 517.753L1211.96 443.42ZM1206.85 428.306L852.142 501.852C852.048 499.443 852.001 497.022 852.001 494.591C852.001 494.325 852.002 494.06 852.003 493.794L1203.78 420.857C1204.85 423.312 1205.88 425.796 1206.85 428.306ZM1200.34 413.483C1199.13 411.019 1197.86 408.587 1196.53 406.187L852.79 477.459C852.538 480.178 852.346 482.913 852.214 485.665L1200.34 413.483ZM1192.35 398.969L853.746 469.175C854.135 466.365 854.588 463.575 855.103 460.807L1187.75 391.834C1189.34 394.175 1190.87 396.554 1192.35 398.969ZM1182.74 384.788C1180.98 382.426 1179.15 380.107 1177.28 377.835L859.116 443.804C858.305 446.626 857.561 449.476 856.883 452.352L1182.74 384.788Z" fill="url(#paint1_linear_294_1900)"/>
<path fill-rule="evenodd" clip-rule="evenodd" d="M321.354 62.5879C323.628 63.5578 325.866 64.6066 328.065 65.732L384.229 175.465C383.852 177.908 383.391 180.332 382.846 182.731L321.354 62.5879ZM314.984 60.1112C312.974 59.4038 310.941 58.7565 308.887 58.1709L379.122 195.395C379.849 193.396 380.515 191.374 381.121 189.33L314.984 60.1112ZM297.352 55.5729C299.255 55.8901 301.146 56.2592 303.021 56.6791L376.896 201.015C376.136 202.783 375.328 204.53 374.474 206.253L297.352 55.5729ZM291.857 54.8059C290.086 54.6064 288.305 54.4516 286.517 54.3426L369.134 215.759C370.088 214.248 371.004 212.713 371.881 211.156L291.857 54.8059ZM385.432 157.878C385.483 161.042 385.39 164.189 385.158 167.311L335.227 69.7561C337.905 71.4006 340.511 73.1647 343.036 75.0435L385.432 157.878ZM384.601 146.284C383.974 141.376 382.993 136.454 381.642 131.545C381.43 130.772 381.209 130.004 380.98 129.24L363.572 95.2284C360.031 90.632 356.133 86.3638 351.931 82.4537L384.601 146.284ZM215.931 75.9428L310.334 260.387C311.811 259.945 313.271 259.473 314.714 258.973L219.641 73.2195C218.382 74.1018 217.145 75.0099 215.931 75.9428ZM212.317 78.8502L305.863 261.62C304.342 262.005 302.819 262.354 301.297 262.669L208.799 81.9472C209.947 80.8905 211.12 79.8578 212.317 78.8502ZM205.382 85.2399C204.25 86.3811 203.145 87.5469 202.069 88.736L291.863 264.176C293.451 263.996 295.041 263.779 296.632 263.524L205.382 85.2399ZM195.777 96.3794C196.774 95.0448 197.804 93.7331 198.865 92.4455L286.986 264.616C285.318 264.727 283.653 264.797 281.993 264.829L195.777 96.3794ZM192.811 100.554C191.83 102.009 190.885 103.487 189.977 104.988L271.624 264.508C273.367 264.648 275.118 264.746 276.875 264.799L192.811 100.554ZM184.759 114.732C185.558 113.034 186.401 111.357 187.289 109.704L266.225 263.93C264.36 263.682 262.506 263.383 260.665 263.036L184.759 114.732ZM182.41 120.112C181.64 122.017 180.926 123.946 180.267 125.896L248.971 260.13C250.936 260.739 252.92 261.292 254.923 261.787L182.41 120.112ZM176.767 138.992C177.225 136.691 177.76 134.411 178.368 132.155L242.776 257.994C240.581 257.16 238.416 256.254 236.285 255.278L176.767 138.992ZM175.543 146.571C175.191 149.411 174.954 152.276 174.836 155.158L222.032 247.37C224.432 248.955 226.895 250.44 229.414 251.824L175.543 146.571ZM176.452 178.256C175.662 173.919 175.152 169.585 174.911 165.275L213.879 241.41C210.514 238.695 207.309 235.767 204.288 232.641L176.452 178.256ZM319.002 257.381L223.443 70.6777C224.72 69.8638 226.017 69.0757 227.336 68.3142L323.2 255.613C321.819 256.23 320.419 256.82 319.002 257.381ZM235.391 64.1157C234.015 64.7588 232.657 65.4296 231.319 66.127L327.307 253.669C328.666 252.99 330.005 252.283 331.325 251.55L235.391 64.1157ZM335.253 249.255L239.554 62.2794C240.954 61.6977 242.371 61.1439 243.807 60.619L339.09 246.783C337.832 247.633 336.553 248.457 335.253 249.255ZM252.145 57.9525C250.8 58.3227 249.468 58.7173 248.15 59.1359L342.835 244.131C344.075 243.211 345.293 242.265 346.487 241.295L252.586 57.832C252.439 57.8718 252.292 57.912 252.145 57.9525ZM350.042 238.272L257.115 56.7112C258.657 56.3652 260.199 56.055 261.74 55.7803L353.499 235.057C352.372 236.153 351.22 237.225 350.042 238.272ZM271.304 54.5243C269.694 54.6609 268.082 54.8353 266.468 55.0479L356.853 231.641C357.964 230.456 359.047 229.247 360.1 228.014L271.304 54.5243ZM363.235 224.169L276.252 54.2219C277.945 54.1586 279.635 54.1366 281.319 54.1553L366.248 220.09C365.277 221.473 364.272 222.833 363.235 224.169Z" fill="#4F4E52"/>
<defs>
<linearGradient id="paint0_linear_294_1900" x1="776.425" y1="73.8715" x2="540.846" y2="466.503" gradientUnits="userSpaceOnUse">
<stop stop-color="#3F3C3C"/>
<stop offset="1" stop-color="#4F6171"/>
</linearGradient>
<linearGradient id="paint1_linear_294_1900" x1="1035.57" y1="311" x2="1035.57" y2="677.457" gradientUnits="userSpaceOnUse">
<stop stop-color="#3C3C3C" stop-opacity="0"/>
<stop offset="1" stop-color="#575656"/>
</linearGradient>
</defs>
</svg>
