<svg width="1200" height="600" viewBox="0 0 1200 600" fill="none" xmlns="http://www.w3.org/2000/svg">
<path fill-rule="evenodd" clip-rule="evenodd" d="M76.1455 150.262C75.388 148.378 74.6972 146.469 74.074 144.539L105.187 48.1855C106.825 46.9847 108.5 45.8452 110.21 44.7681L76.1455 150.262ZM78.4068 155.401C79.1631 156.978 79.9678 158.535 80.8205 160.068L119.728 39.5757C118.145 40.3146 116.583 41.102 115.045 41.9372L78.4068 155.401ZM86.0112 168.277C85.0901 166.987 84.2066 165.675 83.3611 164.341L124.285 37.605C125.753 37.0191 127.237 36.4737 128.734 35.9692L86.0112 168.277ZM88.7573 171.914C89.6702 173.058 90.6145 174.182 91.5897 175.284L137.357 33.5491C135.925 33.8726 134.501 34.2322 133.088 34.6276L88.7573 171.914ZM94.273 57.7009C96.0809 55.8339 97.9629 54.06 99.9115 52.3812L72.2514 138.041C71.6509 135.531 71.162 132.992 70.7869 130.435L94.273 57.7009ZM88.0219 64.9184C85.5359 68.1324 83.2464 71.5608 81.1806 75.1959C80.8548 75.7691 80.5363 76.3444 80.2251 76.9218L70.5831 106.782C69.9703 111.509 69.7551 116.252 69.9244 120.964L88.0219 64.9184ZM145.131 203.736L197.428 41.7799C196.313 41.1789 195.192 40.6049 194.063 40.0576L141.395 203.163C142.639 203.381 143.885 203.572 145.131 203.736ZM148.919 204.146L200.741 43.6605C201.848 44.3208 202.935 45.0022 204.002 45.7039L152.761 204.391C151.481 204.338 150.2 204.257 148.919 204.146ZM156.658 204.463C157.979 204.458 159.298 204.422 160.614 204.357L210.357 50.3073C209.33 49.4898 208.28 48.6926 207.208 47.9167L156.658 204.463ZM168.707 203.572C167.353 203.768 165.993 203.932 164.629 204.063L213.445 52.8851C214.478 53.7892 215.486 54.7149 216.468 55.661L168.707 203.572ZM172.855 202.87C174.269 202.595 175.677 202.285 177.075 201.94L222.305 61.8702C221.374 60.7759 220.414 59.7023 219.424 58.6506L172.855 202.87ZM185.766 199.311C184.315 199.834 182.851 200.318 181.376 200.763L225.105 65.3408C226.043 66.5683 226.947 67.8184 227.815 69.0894L185.766 199.311ZM190.255 197.551C191.808 196.892 193.343 196.187 194.858 195.437L232.918 77.5689C232.131 76.0741 231.3 74.6004 230.424 73.1501L190.255 197.551ZM204.498 189.864C202.895 190.934 201.26 191.948 199.596 192.904L235.276 82.4079C236.067 84.167 236.798 85.9507 237.469 87.7558L204.498 189.864ZM209.61 186.172C211.465 184.728 213.266 183.201 215.009 181.596L241.154 100.627C240.681 98.3126 240.113 96.0192 239.453 93.7523L209.61 186.172ZM227.485 167.242C225.425 170.22 223.204 173.033 220.841 175.676L242.428 108.823C242.805 112.355 242.966 115.916 242.906 119.487L227.485 167.242ZM190.648 38.4917L137.711 202.431C136.497 202.162 135.285 201.866 134.077 201.543L187.183 37.0808C188.344 37.5244 189.499 37.9946 190.648 38.4917ZM126.961 199.303C128.133 199.728 129.311 200.127 130.494 200.5L183.668 35.8239C182.485 35.4294 181.297 35.0619 180.105 34.7213L126.961 199.303ZM176.49 33.7728L123.476 197.951C122.325 197.476 121.18 196.974 120.041 196.446L172.825 32.9801C174.05 33.2171 175.272 33.4812 176.49 33.7728ZM113.65 193.152C114.646 193.718 115.649 194.262 116.657 194.784L169.11 32.3454C167.855 32.1593 166.599 32.0013 165.342 31.8713L113.324 192.965C113.433 193.028 113.541 193.09 113.65 193.152ZM161.521 31.5619L110.043 190.986C108.946 190.291 107.87 189.576 106.815 188.84L157.646 31.4221C158.937 31.4397 160.229 31.4862 161.521 31.5619ZM100.531 184.015C101.545 184.87 102.583 185.705 103.644 186.519L153.714 31.4582C152.38 31.5008 151.049 31.5742 149.722 31.6781L100.531 184.015ZM145.668 32.0914L97.482 181.317C96.4615 180.37 95.4675 179.401 94.5002 178.412L141.548 32.71C142.916 32.471 144.289 32.2647 145.668 32.0914Z" fill="#484554"/>
<path fill-rule="evenodd" clip-rule="evenodd" d="M250.436 369.447C246.919 369.849 243.391 370.127 239.858 370.281L92.3172 273.416C91.0566 270.108 89.9167 266.764 88.8974 263.392L250.436 369.447ZM260.118 368.024C263.12 367.483 266.108 366.851 269.078 366.127L84.5746 244.994C85.0841 247.996 85.6848 250.985 86.3766 253.957L260.118 368.024ZM285.275 361.201C282.682 362.152 280.068 363.03 277.436 363.834L83.3708 236.424C83.0657 233.685 82.8354 230.94 82.68 228.19L285.275 361.201ZM292.658 358.268C295.004 357.263 297.33 356.196 299.633 355.067L82.602 212.58C82.4831 215.136 82.4289 217.694 82.4395 220.253L292.658 358.268ZM103.26 296.16C100.958 292.258 98.8478 288.274 96.928 284.223L228.096 370.339C223.598 370.186 219.106 369.834 214.634 369.281L103.26 296.16ZM112.497 310.004C116.749 315.67 121.452 321.104 126.606 326.258C127.417 327.069 128.236 327.87 129.061 328.659L174.792 358.683C182.452 361.899 190.323 364.454 198.319 366.349L112.497 310.004ZM372.218 278.246L124.226 115.431C122.7 117.026 121.217 118.645 119.775 120.289L369.527 284.259C370.47 282.27 371.367 280.265 372.218 278.246ZM374.66 272.07L128.919 110.733C130.541 109.178 132.189 107.666 133.862 106.198L376.848 265.726C376.167 267.853 375.438 269.968 374.66 272.07ZM378.773 259.21C379.375 256.988 379.925 254.756 380.424 252.514L144.538 97.6475C142.689 98.9955 140.864 100.391 139.064 101.833L378.773 259.21ZM382.849 238.547C382.551 240.915 382.198 243.276 381.788 245.63L150.299 93.65C152.297 92.3318 154.319 91.066 156.364 89.8528L382.849 238.547ZM383.588 231.253C383.78 228.748 383.91 226.239 383.978 223.729L169.499 82.9168C167.23 83.9747 164.981 85.0922 162.756 86.2692L383.588 231.253ZM383.58 207.908C383.788 210.587 383.924 213.271 383.989 215.957L176.627 79.8168C179.125 78.807 181.644 77.8668 184.181 76.9962L383.58 207.908ZM382.699 199.55C382.309 196.634 381.835 193.728 381.275 190.835L200.793 72.3425C197.917 72.9732 195.055 73.6889 192.213 74.4895L382.699 199.55ZM376.367 172.054C377.424 175.243 378.372 178.46 379.211 181.7L210.016 70.6182C213.339 70.1032 216.675 69.6995 220.02 69.407L376.367 172.054ZM372.529 161.754C370.958 157.97 369.226 154.236 367.334 150.564L243.356 69.1682C239.248 68.8936 235.131 68.7864 231.016 68.8466L372.529 161.754ZM348.982 122.955C353.033 127.795 356.734 132.829 360.083 138.023L257.722 70.82C263.831 71.82 269.892 73.1972 275.864 74.9513L348.982 122.955ZM115.563 125.304L366.592 290.112C365.579 292.029 364.521 293.928 363.419 295.809L111.589 130.474C112.872 128.729 114.196 127.005 115.563 125.304ZM356.361 306.734C357.62 304.96 358.835 303.164 360.008 301.349L107.851 135.8C106.64 137.606 105.473 139.433 104.348 141.279L356.361 306.734ZM101.082 146.915L352.478 311.965C351.147 313.679 349.774 315.371 348.359 317.04L98.0548 152.707C99.0193 150.759 100.029 148.828 101.082 146.915ZM339.866 326.258C341.278 324.846 342.657 323.412 344.001 321.959L95.269 158.658C94.3758 160.681 93.5293 162.719 92.7294 164.771L339.403 326.72C339.557 326.566 339.712 326.412 339.866 326.258ZM90.4418 171.049L334.558 331.319C332.883 332.84 331.183 334.317 329.458 335.75L88.4139 177.497C89.0406 175.336 89.7166 173.186 90.4418 171.049ZM318.443 344.078C320.349 342.77 322.233 341.412 324.091 340.006L86.6554 184.122C86.1101 186.383 85.6177 188.654 85.1782 190.932L318.443 344.078ZM83.9972 197.937L312.498 347.955C310.434 349.232 308.346 350.455 306.236 351.623L83.1309 205.147C83.3619 202.738 83.6506 200.334 83.9972 197.937Z" fill="url(#paint0_linear_294_1918)"/>
<ellipse cx="763.458" cy="372.458" rx="188" ry="186" transform="rotate(-135 763.458 372.458)" fill="url(#paint1_linear_294_1918)" fill-opacity="0.6"/>
<defs>
<linearGradient id="paint0_linear_294_1918" x1="126.618" y1="326.27" x2="339.457" y2="113.431" gradientUnits="userSpaceOnUse">
<stop stop-color="#52677E"/>
<stop offset="1" stop-color="#CAAAB3"/>
</linearGradient>
<linearGradient id="paint1_linear_294_1918" x1="863.958" y1="213.458" x2="670.458" y2="535.958" gradientUnits="userSpaceOnUse">
<stop stop-color="#3F3C3C"/>
<stop offset="1" stop-color="#4F6171"/>
</linearGradient>
</defs>
</svg>
