<svg width="1400" height="700" viewBox="0 0 1400 700" fill="none" xmlns="http://www.w3.org/2000/svg">
<path fill-rule="evenodd" clip-rule="evenodd" d="M1070.21 423.59C1072.11 424.947 1073.97 426.369 1075.77 427.854L1105.51 540.675C1104.66 542.858 1103.75 545.006 1102.76 547.114L1070.21 423.59ZM1064.82 420.012C1063.1 418.951 1061.35 417.942 1059.57 416.985L1096.75 558.07C1097.83 556.369 1098.86 554.634 1099.83 552.866L1064.82 420.012ZM1049.43 412.249C1051.13 412.928 1052.8 413.651 1054.45 414.419L1093.56 562.815C1092.5 564.297 1091.4 565.748 1090.26 567.168L1049.43 412.249ZM1044.51 410.429C1042.91 409.886 1041.29 409.382 1039.66 408.92L1083.4 574.878C1084.59 573.674 1085.75 572.44 1086.87 571.177L1044.51 410.429ZM1110.18 524.657C1109.58 527.592 1108.86 530.484 1108.02 533.325L1081.58 433.024C1083.73 435.087 1085.78 437.245 1087.73 439.494L1110.18 524.657ZM1111.75 513.768C1112.17 509.104 1112.26 504.355 1112 499.544C1111.96 498.786 1111.91 498.03 1111.85 497.276L1102.64 462.311C1100.29 457.345 1097.55 452.61 1094.46 448.145L1111.75 513.768ZM970.029 414.614L1020.01 604.248C1021.46 604.138 1022.91 603.997 1024.34 603.826L974.01 412.846C972.667 413.407 971.34 413.997 970.029 414.614ZM966.099 416.571L1015.62 604.484C1014.14 604.532 1012.66 604.547 1011.19 604.529L962.22 418.723C963.495 417.978 964.788 417.26 966.099 416.571ZM958.394 421.076C957.117 421.902 955.86 422.756 954.624 423.638L1002.16 604.015C1003.67 604.17 1005.18 604.29 1006.7 604.376L958.394 421.076ZM947.26 429.433C948.452 428.401 949.669 427.396 950.911 426.42L997.562 603.435C995.998 603.2 994.444 602.929 992.903 602.622L947.26 429.433ZM943.673 432.693C942.472 433.839 941.299 435.015 940.157 436.219L983.38 600.228C984.963 600.71 986.563 601.155 988.177 601.559L943.673 432.693ZM933.361 444.173C934.443 442.764 935.562 441.384 936.716 440.035L978.506 598.602C976.832 597.995 975.178 597.344 973.545 596.651L933.361 444.173ZM930.101 448.672C929.004 450.278 927.953 451.916 926.95 453.586L963.322 591.598C965.015 592.559 966.738 593.471 968.489 594.334L930.101 448.672ZM921.063 464.987C921.953 462.953 922.908 460.952 923.928 458.989L958.025 588.37C956.164 587.155 954.346 585.879 952.572 584.545L921.063 464.987ZM918.399 471.747C917.499 474.302 916.7 476.903 916.008 479.545L940.993 574.351C942.892 576.301 944.869 578.173 946.918 579.962L918.399 471.747ZM912.83 501.227C912.977 497.057 913.382 492.948 914.031 488.914L934.661 567.191C932.099 564 929.728 560.645 927.567 557.143L912.83 501.227ZM1028.63 603.222L978.039 411.265C979.384 410.771 980.744 410.304 982.116 409.867L1032.87 602.436C1031.46 602.727 1030.05 602.99 1028.63 603.222ZM990.413 407.615C989.011 407.931 987.62 408.276 986.242 408.65L1037.06 601.47C1038.45 601.117 1039.83 600.734 1041.2 600.324L990.413 407.615ZM1045.3 598.996L994.633 406.759C996.046 406.504 997.469 406.279 998.902 406.084L1049.35 597.486C1048.01 598.018 1046.66 598.521 1045.3 598.996ZM1007.15 405.305C1005.83 405.375 1004.52 405.471 1003.22 405.591L1053.34 595.791C1054.68 595.192 1055.99 594.564 1057.29 593.908L1007.58 405.283C1007.44 405.29 1007.3 405.297 1007.15 405.305ZM1061.19 591.833L1012 405.162C1013.49 405.154 1014.98 405.18 1016.46 405.237L1065.04 589.558C1063.78 590.344 1062.49 591.102 1061.19 591.833ZM1025.56 406.011C1024.04 405.811 1022.52 405.646 1020.98 405.517L1068.83 587.078C1070.1 586.208 1071.34 585.309 1072.57 584.382L1025.56 406.011ZM1076.24 581.46L1030.2 406.732C1031.77 407.016 1033.34 407.337 1034.89 407.695L1079.86 578.299C1078.68 579.381 1077.47 580.435 1076.24 581.46Z" fill="#484554"/>
<path fill-rule="evenodd" clip-rule="evenodd" d="M1103.71 303.632C1106.67 301.22 1109.71 298.914 1112.83 296.717L1303.22 298.798C1306.29 301.069 1309.28 303.442 1312.16 305.911L1103.71 303.632ZM1095.74 310.561C1093.33 312.8 1090.99 315.114 1088.71 317.501L1326.8 320.104C1324.59 317.675 1322.3 315.309 1319.95 313.013L1095.74 310.561ZM1076.87 331.404C1078.67 329.03 1080.53 326.711 1082.45 324.449L1332.88 327.187C1334.75 329.497 1336.56 331.856 1338.3 334.262L1076.87 331.404ZM1071.87 338.366C1070.32 340.644 1068.83 342.967 1067.4 345.333L1347.46 348.395C1346.08 346.004 1344.64 343.649 1343.14 341.332L1071.87 338.366ZM1280.04 284.512C1284.41 286.717 1288.64 289.106 1292.74 291.668L1123.48 289.817C1127.65 287.337 1131.94 285.042 1136.32 282.941L1280.04 284.512ZM1263.6 277.316C1256.44 274.646 1249 272.448 1241.32 270.767C1240.11 270.503 1238.9 270.252 1237.69 270.016L1178.68 269.371C1169.85 270.909 1161.21 273.171 1152.84 276.105L1263.6 277.316ZM1046.2 457.36L1366.22 460.859C1366.67 458.523 1367.08 456.188 1367.43 453.856L1045.14 450.333C1045.44 452.688 1045.8 455.031 1046.2 457.36ZM1047.58 464.392L1364.69 467.859C1364.12 470.215 1363.5 472.548 1362.84 474.855L1049.28 471.427C1048.66 469.099 1048.09 466.753 1047.58 464.392ZM1051.33 478.466C1052.07 480.834 1052.87 483.182 1053.73 485.508L1358.12 488.836C1359.02 486.535 1359.86 484.206 1360.66 481.848L1051.33 478.466ZM1059.65 499.605C1058.55 497.281 1057.49 494.931 1056.49 492.554L1355.22 495.82C1354.17 498.181 1353.07 500.508 1351.92 502.8L1059.65 499.605ZM1063.23 506.66C1064.51 509.047 1065.86 511.402 1067.26 513.721L1344.03 516.747C1345.47 514.465 1346.86 512.14 1348.2 509.776L1063.23 506.66ZM1076.83 527.858C1075.08 525.545 1073.39 523.187 1071.77 520.787L1339.36 523.712C1337.68 526.083 1335.94 528.403 1334.14 530.671L1076.83 527.858ZM1082.49 534.936C1084.54 537.357 1086.67 539.72 1088.86 542.022L1321.76 544.568C1324.01 542.321 1326.19 540.005 1328.3 537.623L1082.49 534.936ZM1104.25 556.222C1101.43 553.941 1098.7 551.571 1096.05 549.117L1314.39 551.504C1311.67 553.906 1308.87 556.215 1306.01 558.428L1104.25 556.222ZM1113.73 563.342C1117.36 565.865 1121.11 568.248 1124.97 570.481L1284.95 572.23C1288.84 570.088 1292.64 567.789 1296.35 565.338L1113.73 563.342ZM1157.71 584.872C1151.21 582.835 1144.92 580.417 1138.85 577.649L1270.94 579.093C1264.81 581.742 1258.5 584.019 1252.06 585.903L1157.71 584.872ZM1368.34 446.85L1044.4 443.308C1044.2 440.978 1044.06 438.637 1043.97 436.288L1368.93 439.841C1368.79 442.172 1368.59 444.509 1368.34 446.85ZM1044.01 422.256C1043.9 424.6 1043.85 426.939 1043.84 429.27L1369.23 432.828C1369.28 430.482 1369.27 428.143 1369.22 425.812L1044.01 422.256ZM1368.91 418.792L1044.5 415.245C1044.71 412.913 1044.97 410.577 1045.28 408.237L1368.28 411.769C1368.54 414.099 1368.75 416.441 1368.91 418.792ZM1047.63 394.92C1047.17 397.025 1046.75 399.13 1046.38 401.233L1367.35 404.742C1366.98 402.386 1366.57 400.042 1366.1 397.712L1047.78 394.232C1047.73 394.461 1047.68 394.691 1047.63 394.92ZM1364.52 390.679L1049.5 387.235C1050.14 384.878 1050.82 382.546 1051.56 380.241L1362.61 383.642C1363.3 385.969 1363.93 388.316 1364.52 390.679ZM1056.71 366.265C1055.74 368.563 1054.82 370.892 1053.95 373.251L1360.35 376.601C1359.53 374.23 1358.65 371.881 1357.73 369.556L1056.71 366.265ZM1354.72 362.507L1059.85 359.283C1060.99 356.921 1062.17 354.595 1063.41 352.306L1351.31 355.453C1352.5 357.776 1353.64 360.127 1354.72 362.507Z" fill="url(#paint0_linear_349_1909)"/>
<ellipse cx="480.258" cy="305.735" rx="216.632" ry="214.328" transform="rotate(45 480.258 305.735)" fill="url(#paint1_linear_349_1909)" fill-opacity="0.6"/>
<defs>
<linearGradient id="paint0_linear_349_1909" x1="1241.3" y1="270.763" x2="1171.9" y2="587.977" gradientUnits="userSpaceOnUse">
<stop stop-color="#6A727A" stop-opacity="0.5"/>
<stop offset="1" stop-color="#C4B4B8" stop-opacity="0.5"/>
<stop offset="1" stop-color="#C4B4B8" stop-opacity="0.2"/>
</linearGradient>
<linearGradient id="paint1_linear_349_1909" x1="596.064" y1="122.519" x2="373.094" y2="494.136" gradientUnits="userSpaceOnUse">
<stop stop-color="#3F3C3C"/>
<stop offset="1" stop-color="#4F6171"/>
</linearGradient>
</defs>
</svg>
