<svg width="1200" height="600" viewBox="0 0 1200 600" fill="none" xmlns="http://www.w3.org/2000/svg">
<path fill-rule="evenodd" clip-rule="evenodd" d="M203.535 544.176C201.673 543.367 199.84 542.493 198.041 541.556L152.525 451.112C152.847 449.107 153.24 447.119 153.701 445.151L203.535 544.176ZM208.754 546.246C210.4 546.838 212.066 547.381 213.75 547.874L156.831 434.771C156.223 436.408 155.664 438.066 155.155 439.741L208.754 546.246ZM223.21 550.073C221.649 549.801 220.098 549.488 218.56 549.132L158.691 430.167C159.325 428.719 159.998 427.289 160.709 425.878L223.21 550.073ZM227.719 550.733C229.173 550.907 230.634 551.044 232.103 551.144L165.148 418.1C164.356 419.336 163.595 420.592 162.866 421.866L227.719 550.733ZM151.438 465.55C151.413 462.952 151.508 460.367 151.716 457.804L192.181 538.211C189.99 536.845 187.859 535.381 185.796 533.824L151.438 465.55ZM152.056 475.079C152.543 479.113 153.321 483.161 154.403 487.2C154.574 487.837 154.751 488.47 154.935 489.099L169.041 517.128C171.924 520.924 175.102 524.452 178.531 527.687L152.056 475.079ZM290.2 533.798L213.694 381.774C212.478 382.128 211.277 382.508 210.089 382.911L287.138 536.014C288.177 535.296 289.198 534.557 290.2 533.798ZM293.185 531.43L217.373 380.786C218.625 380.478 219.877 380.2 221.13 379.95L296.092 528.906C295.143 529.768 294.174 530.609 293.185 531.43ZM298.917 526.221C299.853 525.29 300.767 524.338 301.658 523.367L228.887 378.765C227.581 378.904 226.274 379.074 224.966 379.274L298.917 526.221ZM306.869 517.125C306.042 518.215 305.189 519.287 304.31 520.339L232.896 378.431C234.266 378.349 235.634 378.3 236.997 378.284L306.869 517.125ZM309.328 513.712C310.142 512.523 310.927 511.314 311.68 510.087L245.513 378.606C244.082 378.48 242.644 378.391 241.201 378.337L309.328 513.712ZM316.021 502.112C315.356 503.503 314.653 504.875 313.915 506.228L249.943 379.11C251.474 379.325 252.995 379.58 254.505 379.876L316.021 502.112ZM317.981 497.707C318.623 496.146 319.221 494.566 319.773 492.968L264.093 382.328C262.483 381.817 260.857 381.352 259.215 380.934L317.981 497.707ZM322.722 482.231C322.332 484.118 321.88 485.988 321.368 487.838L269.17 384.117C270.969 384.814 272.742 385.571 274.487 386.385L322.722 482.231ZM323.769 476.013C324.074 473.682 324.285 471.33 324.398 468.963L286.149 392.959C284.187 391.645 282.173 390.411 280.111 389.26L323.769 476.013ZM323.2 449.983C323.825 453.55 324.219 457.112 324.393 460.653L292.813 397.9C295.561 400.15 298.177 402.572 300.641 405.156L323.2 449.983ZM206.558 384.194L284.001 538.08C282.948 538.741 281.877 539.382 280.79 540L203.1 385.623C204.238 385.124 205.391 384.647 206.558 384.194ZM274.151 543.403C275.285 542.882 276.404 542.339 277.507 541.774L199.716 387.196C198.596 387.747 197.492 388.319 196.404 388.914L274.151 543.403ZM193.165 390.777L270.721 544.888C269.568 545.358 268.4 545.805 267.219 546.228L189.999 392.787C191.037 392.095 192.093 391.425 193.165 390.777ZM260.355 548.371C261.462 548.075 262.558 547.758 263.643 547.422L186.908 394.944C185.884 395.693 184.879 396.462 183.893 397.252L259.992 548.468C260.113 548.436 260.234 548.404 260.355 548.371ZM180.956 399.715L256.266 549.363C254.998 549.639 253.729 549.885 252.461 550.102L178.099 402.337C179.03 401.443 179.983 400.569 180.956 399.715ZM244.599 551.08C245.922 550.977 247.247 550.842 248.574 550.677L175.325 405.125C174.405 406.091 173.509 407.078 172.637 408.085L244.599 551.08ZM170.041 411.226L240.534 551.3C239.142 551.343 237.754 551.352 236.371 551.327L167.543 414.559C168.349 413.429 169.181 412.317 170.041 411.226Z" fill="#484554"/>
<path fill-rule="evenodd" clip-rule="evenodd" d="M826.436 368.635C822.919 369.036 819.391 369.314 815.858 369.469L668.317 272.604C667.057 269.295 665.917 265.952 664.897 262.579L826.436 368.635ZM836.118 367.211C839.12 366.67 842.108 366.038 845.078 365.314L660.575 244.182C661.084 247.183 661.685 250.172 662.377 253.145L836.118 367.211ZM861.275 360.388C858.682 361.34 856.068 362.217 853.436 363.021L659.371 235.612C659.066 232.873 658.835 230.127 658.68 227.378L861.275 360.388ZM868.658 357.456C871.004 356.451 873.33 355.384 875.633 354.255L658.602 211.767C658.483 214.323 658.429 216.882 658.439 219.44L868.658 357.456ZM679.26 295.347C676.958 291.445 674.848 287.462 672.928 283.41L804.096 369.526C799.598 369.374 795.106 369.021 790.634 368.468L679.26 295.347ZM688.497 309.192C692.749 314.857 697.452 320.292 702.606 325.446C703.417 326.257 704.236 327.057 705.061 327.846L750.792 357.87C758.452 361.086 766.323 363.642 774.319 365.537L688.497 309.192ZM948.218 277.433L700.226 114.619C698.7 116.213 697.217 117.833 695.775 119.477L945.527 283.447C946.47 281.458 947.367 279.453 948.218 277.433ZM950.66 271.257L704.919 109.92C706.541 108.365 708.189 106.854 709.862 105.385L952.848 264.914C952.167 267.041 951.438 269.156 950.66 271.257ZM954.773 258.397C955.375 256.176 955.925 253.943 956.424 251.701L720.538 96.835C718.689 98.183 716.864 99.5783 715.064 101.021L954.773 258.397ZM958.849 237.735C958.551 240.102 958.198 242.464 957.788 244.817L726.299 92.8375C728.297 91.5193 730.319 90.2535 732.364 89.0403L958.849 237.735ZM959.588 230.44C959.78 227.935 959.91 225.427 959.978 222.917L745.499 82.1043C743.23 83.1622 740.981 84.2797 738.756 85.4567L959.588 230.44ZM959.58 207.096C959.788 209.775 959.924 212.459 959.989 215.144L752.627 79.0043C755.125 77.9945 757.644 77.0543 760.181 76.1837L959.58 207.096ZM958.699 198.737C958.309 195.822 957.835 192.915 957.275 190.022L776.793 71.53C773.917 72.1607 771.055 72.8764 768.213 73.677L958.699 198.737ZM952.367 171.242C953.424 174.43 954.372 177.648 955.211 180.887L786.016 69.8057C789.339 69.2907 792.675 68.887 796.02 68.5945L952.367 171.242ZM948.529 160.942C946.958 157.157 945.226 153.423 943.334 149.751L819.356 68.3557C815.248 68.0811 811.131 67.9739 807.016 68.0341L948.529 160.942ZM924.982 122.143C929.033 126.982 932.734 132.016 936.083 137.211L833.722 70.0075C839.831 71.0075 845.892 72.3847 851.864 74.1388L924.982 122.143ZM691.563 124.491L942.592 289.3C941.579 291.216 940.521 293.116 939.419 294.996L687.589 129.662C688.872 127.917 690.196 126.193 691.563 124.491ZM932.361 305.921C933.62 304.147 934.835 302.352 936.008 300.536L683.851 134.987C682.64 136.794 681.473 138.621 680.348 140.467L932.361 305.921ZM677.082 146.102L928.478 311.152C927.147 312.866 925.774 314.559 924.359 316.228L674.055 151.895C675.019 149.947 676.029 148.016 677.082 146.102ZM915.866 325.446C917.278 324.033 918.657 322.6 920.001 321.146L671.269 157.846C670.376 159.868 669.529 161.906 668.729 163.958L915.403 325.907C915.557 325.754 915.712 325.6 915.866 325.446ZM666.442 170.236L910.558 330.506C908.883 332.028 907.183 333.505 905.458 334.938L664.414 176.685C665.041 174.523 665.717 172.373 666.442 170.236ZM894.443 343.266C896.349 341.957 898.233 340.6 900.091 339.194L662.655 183.31C662.11 185.57 661.618 187.841 661.178 190.12L894.443 343.266ZM659.997 197.124L888.498 347.142C886.434 348.419 884.346 349.642 882.236 350.81L659.131 204.335C659.362 201.926 659.651 199.522 659.997 197.124Z" fill="url(#paint0_linear_349_2022)"/>
<ellipse cx="596" cy="194" rx="188" ry="186" transform="rotate(-90 596 194)" fill="url(#paint1_linear_349_2022)" fill-opacity="0.6"/>
<defs>
<linearGradient id="paint0_linear_349_2022" x1="702.618" y1="325.458" x2="915.457" y2="112.618" gradientUnits="userSpaceOnUse">
<stop stop-color="#52677E"/>
<stop offset="1" stop-color="#CAAAB3"/>
</linearGradient>
<linearGradient id="paint1_linear_349_2022" x1="696.5" y1="35" x2="503" y2="357.5" gradientUnits="userSpaceOnUse">
<stop stop-color="#3F3C3C"/>
<stop offset="1" stop-color="#4F6171"/>
</linearGradient>
</defs>
</svg>
